<svg xmlns="http://www.w3.org/2000/svg" width="573.85" height="420.914" viewBox="0 0 573.85 420.914"><g transform="translate(-91.957 2628.388)"><g transform="translate(10.963 -2666.66)"><path d="M0-2245.746H570.3V-2666.66H0Z" transform="translate(84.543 2704.933)" fill="none"/><path d="M982.9-1976.086c-36.2,0-525.583-1.075-525.583-1.135-.2-.485-62.125-77.829,15.849-158.7,38.635-40.069-35.479-91.981,0-136.55,39.459-49.57,78.648-48.831,115-48.092,19.633.4,38.439.8,56.01-6.731,8.852-3.789,17.734-9.89,26.625-19.253a99.526,99.526,0,0,1,16.361-13.843q1.352-.919,2.728-1.79a108.542,108.542,0,0,1,10.916-6.037q3.785-1.818,7.712-3.363h0a124.031,124.031,0,0,1,12.778-4.242,142.336,142.336,0,0,1,19.058-3.809q4.25-.564,8.569-.891c55.976-4.289,118.968,19.833,151.477,55.089,6.544,7.1,36.305,43.833,12.846,94.324-14.812,31.878,47.239,62.323,69.291,98.725,56.059,92.551.872,155.086.364,156.293" transform="translate(-352.819 2434.341)" fill="none"/><path d="M2210.658-1749.641l-16.288-24.413-9.773-36.5-.077-.291h-14.692l-26.5-39.728c2.482.441,5.845,2.569,10.131,5.462a7.024,7.024,0,0,0,3.692,1.5c3.488,0,3.495-6.074,6.873-8.69a4.764,4.764,0,0,1,2.985-.856,22.669,22.669,0,0,1,6.482,1.406,22.551,22.551,0,0,0,5.315,1.406c.665,0,1.1-.214,1.207-.764.62-3.112-3.916-4.76-7.849-5.932s-5.419-2.738-1.812-9.126-.64-4.593-3.259-12.218a9.528,9.528,0,0,0-5.534-6.044c-1.807.368-3.6.809-5.375,1.317a72.681,72.681,0,0,0-10.821,4.052,72.814,72.814,0,0,0-14.859,9.27h0a72.814,72.814,0,0,1,14.859-9.27,72.681,72.681,0,0,1,10.821-4.052c1.77-.508,3.567-.948,5.375-1.317a72.122,72.122,0,0,1,14.545-1.484,72.356,72.356,0,0,1,24.759,4.381q2.6.945,5.081,2.066a71.6,71.6,0,0,1,6.756,3.478,72.085,72.085,0,0,1,22.635,20.788l0,0a72.738,72.738,0,0,1,8.8,16.746,72.055,72.055,0,0,1,2.8,9.569q.668,3.043,1.078,6.146a71.912,71.912,0,0,1,.376,15.138h0a4.4,4.4,0,0,0-1.705-1.058s1.14-1.894-7.946-4.428-5.208-12.668-13.445-14.894a15.405,15.405,0,0,0-4.018-.592,13.019,13.019,0,0,0-4.6.926,12.044,12.044,0,0,1-4.222.923,10.654,10.654,0,0,1-2.858-.421,19.959,19.959,0,0,0-5.232-.779c-4.257,0-7.261,1.917-6.311,6.589,1.314,6.445-6.194,4.869-4.742,12.516s10.139,8.113,17.276,8.591-3.97,9.333.774,15.867,14.155,7.647,9.089,11-14.695,10.246-7.431,16.736a8.262,8.262,0,0,0,5.394,2.126,72.516,72.516,0,0,1-7.752,4.857m22.558-82.38c3.211,0,4.814,2.335,6.534,4.667s3.565,4.668,7.259,4.668q.478,0,1-.052-.407-3.107-1.078-6.146a72.092,72.092,0,0,0-2.8-9.569,72.748,72.748,0,0,0-8.8-16.746l0,0a5.336,5.336,0,0,0-1.354-.179h-.075a14.132,14.132,0,0,0-5.88-1.62,5.163,5.163,0,0,0-4.195,1.807c-3.234,3.956-10.137-.349-12.648,5.15s9.848,2.557,13.517,7.993c3.46,5.133.832,10.112,6.751,10.112.353,0,.734-.017,1.15-.055.212-.018.418-.027.617-.027m-53.307-45.455c-2.893,0-4.433,2.726-2.808,6.836,1.817,4.585,2.131,11.737,5.21,11.737a3.3,3.3,0,0,0,1.705-.587c4.152-2.584,5.051-5.477,7.876-5.477a5.38,5.38,0,0,1,1.3.174s5.875-4.157.351-8.021-6.191-1.678-10.764-3.913a6.62,6.62,0,0,0-2.87-.749" transform="translate(-1739.671 2031.681)" fill="#dbe8fe"/><path d="M2157.147-1837.151a7.023,7.023,0,0,1-3.692-1.5c-4.287-2.893-7.65-5.021-10.132-5.462l-12.823-19.22a72.815,72.815,0,0,1,14.859-9.27,72.685,72.685,0,0,1,10.821-4.053c1.77-.508,3.567-.948,5.374-1.317a9.528,9.528,0,0,1,5.534,6.044c2.619,7.625,6.861,5.83,3.259,12.218s-2.123,7.953,1.812,9.126,8.469,2.821,7.849,5.932c-.109.55-.543.764-1.207.764a22.554,22.554,0,0,1-5.315-1.406A22.669,22.669,0,0,0,2167-1846.7a4.765,4.765,0,0,0-2.985.856c-3.378,2.616-3.385,8.69-6.873,8.69" transform="translate(-1738.989 2025.218)" fill="#bacdfe"/><path d="M2491.188-1504.708h0a8.262,8.262,0,0,1-5.394-2.126c-7.264-6.49,2.362-13.38,7.431-16.736s-4.344-4.463-9.089-11,6.365-15.389-.774-15.867-15.822-.941-17.276-8.591,6.056-6.072,4.742-12.516c-.951-4.672,2.054-6.589,6.31-6.589a19.96,19.96,0,0,1,5.233.779,10.654,10.654,0,0,0,2.858.421,12.044,12.044,0,0,0,4.222-.923,13.019,13.019,0,0,1,4.6-.926,15.4,15.4,0,0,1,4.018.592c8.237,2.225,4.359,12.362,13.445,14.894s7.946,4.428,7.946,4.428a4.4,4.4,0,0,1,1.705,1.058h0a72.528,72.528,0,0,1-4.152,18.994,72.761,72.761,0,0,1-5.564,11.874,72.074,72.074,0,0,1-20.261,22.235" transform="translate(-2012.811 1781.891)" fill="#bacdfe"/><path d="M2597.008-1696.734c-3.694,0-5.536-2.333-7.259-4.667s-3.323-4.667-6.534-4.667c-.2,0-.406.01-.617.027-.416.037-.8.055-1.15.055-5.92,0-3.291-4.979-6.751-10.112-3.669-5.437-16.029-2.492-13.517-7.993s9.415-1.195,12.648-5.151a5.164,5.164,0,0,1,4.195-1.807,14.132,14.132,0,0,1,5.88,1.62h.075a5.328,5.328,0,0,1,1.354.179l0,0a72.748,72.748,0,0,1,8.8,16.746,72.127,72.127,0,0,1,2.8,9.569q.668,3.043,1.078,6.146-.523.052-1,.052" transform="translate(-2090.119 1905.729)" fill="#bacdfe"/><path d="M2382.433-1822.142c-3.079,0-3.393-7.152-5.21-11.737-1.626-4.11-.085-6.836,2.808-6.836a6.622,6.622,0,0,1,2.87.749c4.573,2.235,5.24.047,10.764,3.913s-.351,8.021-.351,8.021a5.384,5.384,0,0,0-1.3-.174c-2.825,0-3.724,2.893-7.876,5.477a3.3,3.3,0,0,1-1.705.588" transform="translate(-1939.544 1994.92)" fill="#bacdfe"/><path d="M644.884-339.431h25.291c1.355-1.15-.938-3.761-3.334-3.936a14.786,14.786,0,0,0-3.86.456c-.348-4.623-2.336-25.4-9.826-24.567-8.422.936,0,9.151,2.381,14.015a115.725,115.725,0,0,1,4.474,11.21c-.684.149-1.392.294-2.115.426-1.116-3.425-5.27-14.956-10.552-14.284-6.2.787-3.709,5.409.687,8.153,3.225,2.019,7.185,4.887,9.067,6.271a26.944,26.944,0,0,1-4.946.4c-4.332-.1-6.447,1.172-7.267,1.86" transform="translate(-523.461 796.758)" fill="#a8d29f"/><path d="M2702.26-330.727h-23.489c-1.26-1.068.871-3.493,3.1-3.657a13.716,13.716,0,0,1,3.585.426c.323-4.294,2.168-23.6,9.126-22.82,7.824.869,0,8.5-2.211,13.019a107.97,107.97,0,0,0-4.157,10.41c.637.137,1.294.271,1.967.4,1.036-3.184,4.894-13.893,9.8-13.268,5.76.729,3.445,5.023-.637,7.573-3,1.874-6.674,4.538-8.421,5.825a25.09,25.09,0,0,0,4.593.368c4.025-.1,5.989,1.09,6.749,1.728" transform="translate(-2185.932 788.054)" fill="#a8d29f"/><path d="M2870.943-1065.339s.56-5.561-2.35-5.372-3.677,1.526-3.353,2.594,3.154,4.605,3.154,4.605l2.549-1.827" transform="translate(-2338.156 1368.68)" fill="#ffb27d"/><path d="M2926-1034.611a47.482,47.482,0,0,1-10.144,8.148q-.982.624-2.064,1.252a76.871,76.871,0,0,1-9.484,4.667c-.4.164-.871.346-1.4.535-4.147,1.5-11.782,3.622-16.512,3.814-.413.015-.8.015-1.165,0-7.2-.291-8.078-28.237-8.078-28.237s.8-2.8,4.5-2.091c0,0,5.616,15.782,7.63,17.067,1.79,1.145,12.066-14.436,20.913-15.526,5.957-.732,15.8,10.368,15.8,10.368" transform="translate(-2348.423 1349.094)" fill="#739af0"/><path d="M2959.347-262.72s.533,6.151-.767,6.791l-16.641-.032s0-1.922,2.671-2.347,7.368-1.991,8.165-5.479,6.572,1.068,6.572,1.068" transform="translate(-2400.934 713.474)" fill="#1c3154"/><path d="M2969.528-735.062c.082,4.023.274,8.17.652,11.9,1.8,17.694,2.429,39.073,2.688,43.2.448,7.154,1.859,18.585,1.859,18.585s2.805,2.661,8.27,1.392a186,186,0,0,0,5.539-33.8c.015-.286.03-.57.045-.856.117-2.293.241-4.914.366-7.739.834-18.926,1.738-47.044,1.738-47.044l-20.883-4.9s-.48,9.243-.274,19.27" transform="translate(-2423.449 1111.365)" fill="#2a4e96"/><path d="M2969.528-735.062c5.292,9.131,15.379,25.951,19.419,32.678.834-18.927,1.738-47.044,1.738-47.044l-20.883-4.9s-.48,9.243-.274,19.27" transform="translate(-2423.449 1111.365)" fill="#233862"/><path d="M2943.171-934.391c-4.147,1.5-11.782,3.622-16.512,3.814.722-.137,5.99-1.18,7.938-3.532,2.091-2.527,5.616-9.395,8.417-6.592,1.319,1.319.933,3.926.157,6.31" transform="translate(-2388.46 1263.477)" fill="#6385db"/><path d="M3182.706-668.409s1.3,5.083,1.083,6.211-1.476,4.956-2.265,5.9-.822-4.125-1.347-4.921-.241,1.894-.662,2.113-1.12-2.039-1.434-2.84,1.123-3.587,1.255-5.586,3.371-.881,3.371-.881" transform="translate(-2593.472 1041.738)" fill="#ffb27d"/><path d="M3210.48-295.371s2.962,2.7,2.385,4.623-3.251,3.2-3.612,5.549-1.8,3.627-3.107,3.627h-6.2s-.958-1.65,1.354-2.148,3.184-3.259,3.039-5.818a45.213,45.213,0,0,1,.217-5.977l4.912-1.138,1.011,1.282" transform="translate(-2611.282 739.135)" fill="#1c3154"/><path d="M2988.846-753.456s19.549,41.826,29.952,60.177,13.654,23.474,13.654,23.474,5.959-2.347,6.5-3.948c0,0-3.978-35.431-10.943-44.066-3.938-4.882-8.561-19.526-8.777-24.647s-4.784-17.346-4.784-17.346l-25.6,6.355" transform="translate(-2439.607 1115.822)" fill="#2a4e96"/><path d="M2969.211-986.7a33.875,33.875,0,0,0,17.181,8.919c4.747.909,14.384,1.785,16.773-1.593.56-.794.565-1.969.441-3.8-.321-4.767-1.521-13.985,3.894-32.508a31.444,31.444,0,0,0,1.041-4.951c1.182-9.474,1.055-16.629-7.167-20.45-12.32-5.725-17.375-1.016-17.375-1.016s-6.552,3.062-9.544,11.984c-5.987,17.849-5.242,43.419-5.242,43.419" transform="translate(-2423.43 1346.895)" fill="#739af0"/><path d="M3060.971-1090.792a9.14,9.14,0,0,1-9.2.6c-.269-.134-.236-1.974-.169-3.781.067-1.772.234-3.512.234-3.512l4.384-2.878,4.182-2.743c-.5,9.435,1.506,11.643.57,12.312" transform="translate(-2490.3 1395.021)" fill="#ffb27d"/><path d="M3059.871-1087.26a13.475,13.475,0,0,1-8.065,5.24c.067-1.772.256-3.727.256-3.727l4.361-2.664,3.448,1.15" transform="translate(-2490.487 1383.071)" fill="#ed985f"/><path d="M3027.069-1153.787s10.6,3.958,12.964-2.576,5.317-10.423-1.354-13.226-8.892-.782-10.219,1.207-4.088,13.4-1.392,14.595" transform="translate(-2469.47 1450.215)" fill="#ffb27d"/><path d="M3040.883-1187.612c.122-.094.368-.142.886-.067a2.121,2.121,0,0,0-.9-.458,2.62,2.62,0,0,0-1.257-2.609,1.552,1.552,0,0,1,.523,1.25c-1.128-1.733-3.95-3.391-12.481-4.386-11.24-1.312-8.991,6.495-7.727,7.622s5.332-.475,7.958.264,2.375,4.7,3.176,5.407.63-.3,1.964-.61,1.051,1.74.436,2.992.724,3.323.724,3.323l2.064-1.5c2.063-1.5,5.2-8.942,4.754-10.749l-.119-.483" transform="translate(-2463.764 1468.972)" fill="#2c3a64"/><path d="M3124.936-883.232c-.321-4.767-1.521-13.985,3.894-32.508a31.417,31.417,0,0,0,1.041-4.951h0c-4.023-1.327-11.354,1.626-11.354,1.626s-1.723,24.485,6.42,35.834" transform="translate(-2544.843 1246.944)" fill="#6385db"/><path d="M3076.554-1022.091s4.949,1.8,8.108,14.9c2.086,8.66,5.925,21.386,6.358,25.386s-4.389,27.415-4.389,27.415a3.145,3.145,0,0,1-2.347.162,3.872,3.872,0,0,1-2.338-1.4s-1.155-15.608-.856-22.977c.124-3.062-14.172-22.422-21.889-24.916-3.03-.978,17.353-18.578,17.353-18.578" transform="translate(-2496.557 1329.134)" fill="#739af0"/><path d="M2782.646-1215.541a164.558,164.558,0,0,1,30.818,2.631l1.723-4.346,1.892-4.762s-16.574-7.134-26.536-17.072l-7.9,23.549" transform="translate(-2271.119 1505.619)" fill="#aec3ff"/><path d="M2783.55-1240.994l-8.215,24.249a2.188,2.188,0,0,1-1.439-2.828l7.229-20.373a1.805,1.805,0,0,1,2.425-1.048" transform="translate(-2263.608 1507.291)" fill="#f99746"/><path d="M2857.775-1103.489h0a2.966,2.966,0,0,0,3.483-2.323l2.828-14.152a2.966,2.966,0,0,0-2.323-3.483,2.972,2.972,0,0,0-3.485,2.323l-2.828,14.152a2.969,2.969,0,0,0,2.325,3.483" transform="translate(-2330.208 1411.612)" fill="#f99746"/><path d="M2782.646-1125.082a164.571,164.571,0,0,1,30.818,2.631l1.723-4.346c-15.511-3.167-32.541,1.715-32.541,1.715" transform="translate(-2271.098 1415.16)" fill="#739af0"/><path d="M2923.259-1150.173l4.471.787c-.07,0,4.152.821,5.537-2.92a3.042,3.042,0,0,0,.264-.807c1.075-4.663-1.484-5.521-1.484-5.521l-5.755-2.243-1.827,6.47v.022l-1.2,4.212" transform="translate(-2385.611 1442.008)" fill="#f99746"/><path d="M2923.259-1121.99l4.471.787c-.07,0,4.152.821,5.537-2.92-2.529-1.84-8.8-2.1-8.8-2.1v.022l-1.2,4.212" transform="translate(-2385.605 1413.825)" fill="#ed7d2b"/><path d="M2861.713-1090.233s2.186.871,1.785,1.835-3.181,2.285-3.619,1.526.458-4.175,1.834-3.361" transform="translate(-2333.723 1384.655)" fill="#ffb27d"/><path d="M2893.471-1069.113a30.58,30.58,0,0,0,.438-3.266c.025-1.028.147-1.867-.095-1.9s-.418.162-.518.493-.478,2.38-.478,2.38l.192,1.976.46.314" transform="translate(-2360.668 1371.577)" fill="#ffb27d"/><path d="M1683.326-1060.51l-12.389,147.319s-1.3,8.932,5.345,8.947c10.921.027,54.362,0,54.362,0s-8.222-1.86-8.123-6.042C1722.64-915.215,1737-1061.9,1737-1061.9l-53.678,1.394" transform="translate(-1363.913 1361.514)" fill="#7599ea"/><path d="M1750.286-918.5c-2.148.007-44.2.077-54.838-.06-4.635-.057-5.449-4.12-5.487-6.751a13.2,13.2,0,0,1,.139-2.193l.324-3.829.821-9.758.724-8.623.931-11.08.787-9.35,8.8-104.682,53.678-1.394s-6.049,61.39-10.328,106.076c-.478,4.979-.933,9.751-1.352,14.209q-.205,2.132-.4,4.167c-.4,4.227-.759,8.11-1.075,11.538-.167,1.807-.319,3.485-.458,5.023-.548,6.027-.866,9.875-.871,10.607a6.239,6.239,0,0,0,.1,1.192c.881,4.695,7.687,4.906,8.494,4.906" transform="translate(-1379.525 1373.16)" fill="#90aff4"/><path d="M1039.535-1483.823l30.18,121.226,4.132,16.6,14.056,56.463h261.143l-51.808-194.293h-257.7" transform="translate(-850.319 1704.66)" fill="#aec3ff"/><path d="M1021.312-1483.823l-4.183,1.394,46.991,197.116,5.561-4.217-48.369-194.293" transform="translate(-830.229 1704.66)" fill="#90aff4"/><path d="M1268.82-438.942h259.537l7.167-4.217H1274.38l-5.561,4.217" transform="translate(-1037.339 858.289)" fill="#7599ea"/><path d="M1756.982-228.782h56.194v-2.671h-56.194Z" transform="translate(-1434.16 686.108)" fill="#aec3ff"/><path d="M1749.987-420.572l-.291,2.041-52.846,10.677.724-8.623.346-4.095h52.067" transform="translate(-1385.053 839.919)" fill="#5888dd"/><path d="M1750.293-304.227h-45.306c-4.048-.012-7.413-.032-9.532-.06-4.635-.057-5.449-4.12-5.487-6.751l52.6-9.9c-.548,6.027-.866,9.875-.871,10.607v.04a6.244,6.244,0,0,0,.1,1.153c.881,4.695,7.687,4.906,8.494,4.906" transform="translate(-1379.489 758.882)" fill="#7a9feb"/><path d="M1789.988-231.428c-6.831,0-13.881-.007-19.579-.025h45.306c-1.118,0-13.047.025-25.727.025" transform="translate(-1445.038 686.108)" fill="#8cabf1"/><path d="M1039.532-1483.823h257.7l41.811,156.151H1078.406l-38.874-156.151" transform="translate(-850.208 1704.66)" fill="#aec3ff"/><path d="M1373.391-1297.993H1132.1l-8.622-34.348-3.336-13.291-1.36-5.419-8.862-35.3-.459-1.837-4.684-18.66-2.1-8.347-1.788-7.122-4.191-16.693h237.809l4.6,16.693,1.964,7.122,2.3,8.347,15.163,55v0l1.285,4.66.6,2.163,10.47,37.97,2.5,9.056" transform="translate(-896.723 1668.213)" fill="#739af0"/><path d="M1339.12-1422.327H1100.9l-4.191-16.7H1334.52l4.6,16.7" transform="translate(-896.403 1668.224)" fill="#607cf4"/><path d="M1149.122-1407.7a1.576,1.576,0,0,1,1.567-2.086,2.85,2.85,0,0,1,2.607,2.086,1.578,1.578,0,0,1-1.567,2.089,2.852,2.852,0,0,1-2.608-2.089" transform="translate(-937.695 1644.443)" fill="#e9f3fe"/><path d="M1186.266-1407.7a1.576,1.576,0,0,1,1.567-2.086,2.85,2.85,0,0,1,2.607,2.086,1.578,1.578,0,0,1-1.567,2.089,2.852,2.852,0,0,1-2.607-2.089" transform="translate(-968.006 1644.443)" fill="#e9f3fe"/><path d="M1226.261-1407.7a1.576,1.576,0,0,1,1.567-2.086,2.85,2.85,0,0,1,2.607,2.086,1.578,1.578,0,0,1-1.567,2.089,2.852,2.852,0,0,1-2.607-2.089" transform="translate(-1000.645 1644.443)" fill="#e9f3fe"/><path d="M2055.631-2367.8c9.753-11.451,24.791-34.453,34.916-46.232a3.735,3.735,0,0,0-2.845-6.166h-18.424l17.378-39.294a1.54,1.54,0,0,0-2.641-1.546l-42.02,56.242a2.326,2.326,0,0,0,2.148,3.7l20.856-2.569-12.409,34.086a1.791,1.791,0,0,0,3.042,1.78" transform="translate(-1666.368 2499.939)" fill="#f77d48"/><path d="M1552.664-1905.8c2.193-11.252,3.577-32.155,5.9-43.765a2.847,2.847,0,0,0-4.2-3.03l-12.235,6.891-3.156-32.6a1.175,1.175,0,0,0-2.335-.037l-6.871,53.07a1.773,1.773,0,0,0,2.81,1.655l12.892-9.509,4.508,27.283a1.365,1.365,0,0,0,2.686.042" transform="translate(-1248.507 2107.687)" fill="#aec3ff"/><path d="M1622.6-1637.442l-209.66,17.662a20.984,20.984,0,0,1-20.923-29.474l88.825-198.791a20.986,20.986,0,0,1,36.618-3.084L1638.291-1670a20.987,20.987,0,0,1-15.7,32.561" transform="translate(-1136.36 2010.987)" fill="#e6efff"/><path d="M1464.209-1887.151a12.865,12.865,0,0,0-10.8,7.667l-88.827,198.794a12.911,12.911,0,0,0,1.272,12.855,12.912,12.912,0,0,0,11.717,5.442l209.66-17.664a12.906,12.906,0,0,0,10.642-7.326,12.91,12.91,0,0,0-.9-12.887L1476.141-1881.4a12.864,12.864,0,0,0-11.931-5.753M1588.567-1664.2l-209.66,17.664a28.685,28.685,0,0,1-26.034-12.088,28.685,28.685,0,0,1-2.823-28.563l88.825-198.791a28.573,28.573,0,0,1,24-17.035,28.577,28.577,0,0,1,26.509,12.778L1610.217-1709.1a28.685,28.685,0,0,1,1.994,28.632,28.689,28.689,0,0,1-23.644,16.273" transform="translate(-1101.673 2045.672)" fill="#f77d48"/><path d="M1931.875-1483.034l-30.2,2.544L1888.7-1583.317l38.756-3.266Zm-32.416,37.93a19.217,19.217,0,0,1,.817-7.615,17.584,17.584,0,0,1,3.587-6.3,18.841,18.841,0,0,1,6.024-4.466,23.508,23.508,0,0,1,8.25-2.118,24,24,0,0,1,8.548.7,18.711,18.711,0,0,1,6.749,3.388,17.613,17.613,0,0,1,4.593,5.614,19.256,19.256,0,0,1,2.079,7.368,18.766,18.766,0,0,1-.822,7.553,17.752,17.752,0,0,1-3.592,6.241,18.677,18.677,0,0,1-6.089,4.471,24.011,24.011,0,0,1-8.31,2.123,23.506,23.506,0,0,1-8.489-.707,18.77,18.77,0,0,1-6.684-3.4,17.643,17.643,0,0,1-4.588-5.551,18.76,18.76,0,0,1-2.074-7.309" transform="translate(-1541.64 1788.234)" fill="#f77d48"/><path d="M1249-1017.924s.657-1.479,1.083-2.178,2.245-2.751,2.554-2.285,1.548,3.59.89,4.463.043,2.4-3.229,3.321l-1.3-3.321" transform="translate(-1019.253 1329.43)" fill="#ffb27d"/><path d="M1054.232-1048.184s16.75,13.983,23.281,12.688c5.107-1.013,13.181-3.575,13.181-3.575s2.131,2.029,1.528,4.458c0,0-10.286,9.678-17.615,9.741-11.455.1-16.858-5.676-16.858-5.676l-3.517-17.637" transform="translate(-860.451 1350.355)" fill="#ed7d2b"/><path d="M896.888-269.251s.486,7.844,2,7.956c.2.015,7.7.015,7.7.015l9.568-.055a3.1,3.1,0,0,0-2.859-2.793c-2.8-.488-7.478-2.454-9.172-6.151-1.782-3.888-7.237,1.028-7.237,1.028" transform="translate(-731.962 718.903)" fill="#113c68"/><path d="M893.935-677.187a19.943,19.943,0,0,0,5.179.973,19.028,19.028,0,0,0,4.835-.69s.548-5.295,3.561-16.962c1.58-6.116,3.836-13.98,7.046-23.751,8.874-27,11.573-42.8,11.82-44.3.013-.077.018-.117.018-.117l-.029-.012-27.284-11.981s3.372,37.218-.93,51.5a60.072,60.072,0,0,0-1.562,6.843c-2.717,15.516-2.654,38.49-2.654,38.49" transform="translate(-729.597 1127.382)" fill="#2a4e96"/><path d="M925.763-693.866c1.58-6.116,3.836-13.98,7.046-23.751,8.874-27,11.573-42.8,11.82-44.3,0-.045-.005-.087-.01-.129l-27.284-11.981s3.372,37.218-.93,51.5c-.6,2,9.359,28.655,9.359,28.655" transform="translate(-747.899 1127.382)" fill="#233862"/><path d="M1011.032-269.251s.486,7.844,2,7.956c.2.015,7.7.015,7.7.015l9.568-.055a3.1,3.1,0,0,0-2.859-2.793c-2.8-.488-7.478-2.454-9.172-6.151-1.782-3.888-7.237,1.028-7.237,1.028" transform="translate(-825.116 718.903)" fill="#15447c"/><path d="M967.518-769.331A388.412,388.412,0,0,1,963.7-715.6c-4.173,29.613-2.758,42.182-2.758,42.182a28.478,28.478,0,0,1-4.024,1.023,18.237,18.237,0,0,1-5.97-.69s-5.973-29.623-4.26-44.445-8.179-50.86-8.179-50.86l29.009-.941" transform="translate(-765.964 1123.565)" fill="#2a4e96"/><path d="M990.263-1123.553l5.326,3.49,4.852-1.372c.887-1.265,1.121-3.7,1.134-5.815a36.15,36.15,0,0,0-.19-3.873l-7.185-3.172-2.681-1.182c.008.042.209,2.2.237,2.517a18.35,18.35,0,0,1-1.492,9.407" transform="translate(-808.136 1421.351)" fill="#ffb27d"/><path d="M948.066-1017.292c-6.629,6.4-31.718,5.325-33.264-1.728s1.686-60.033,13.01-63.361c2.35-.69,14.913,3.37,14.913,3.37a79.7,79.7,0,0,1,3.264,11.722c.251,1.279.983,14.817,1.531,27.482.256,5.925.472,11.658.583,15.857a45.722,45.722,0,0,1-.037,6.656" transform="translate(-746.339 1378.231)" fill="#f99746"/><path d="M1000.241-1127.714c1.458,2.464,6.573,4.623,9.282,5.611a36.142,36.142,0,0,0-.19-3.873l-7.185-3.171c-1.588-.022-2.556.334-1.907,1.434" transform="translate(-816.105 1416.204)" fill="#fca56b"/><path d="M994.014-1197.513s-11.578,3.612-13.716-3.632-5.073-11.657,2.229-14.271,9.56-.274,10.862,1.972,3.581,14.807.624,15.932" transform="translate(-798.044 1487.302)" fill="#ffb27d"/><path d="M970.992-1231.368s-.738,8.429-2.482,8.063-3.663-1.148-3.407,1.394-1.7,6.9-4.209,6.886c-5.392-.022-11.25-13.858-9.774-16.479,4.259-7.57,26.028-9.1,19.872.137" transform="translate(-776.039 1504.529)" fill="#163560"/><path d="M997.892-1096.537c-.149-.062-8.619-3.863-9.609-3.535s-2.225,3.351-2.225,3.351l14.914,3.373a7.4,7.4,0,0,0-3.079-3.189" transform="translate(-804.717 1392.572)" fill="#ed7d2b"/><path d="M1105.7-881.063l-47.477,44.7c-.931.876-2.1,1.155-2.608.62l-1.6-1.7c-.5-.535-.154-1.688.776-2.564l47.477-44.7c.931-.876,2.1-1.155,2.608-.62l1.6,1.7c.5.535.154,1.69-.776,2.567" transform="translate(-860.152 1218.127)" fill="#1f4d84"/><path d="M1079.062-742.818,1058.228-723.2c-.931.876-2.1,1.155-2.608.62l-1.6-1.7c-.5-.535-.154-1.688.776-2.564l20.834-19.616,3.434,3.647" transform="translate(-860.033 1104.967)" fill="#739af0"/><path d="M1277.026-1195.427a34.237,34.237,0,0,1,30.837-10.286,34.113,34.113,0,0,1,17.61,8.81,34.27,34.27,0,0,1,1.476,48.448,34.126,34.126,0,0,1-17.037,9.863,34.236,34.236,0,0,1-31.411-8.384,34.275,34.275,0,0,1-1.475-48.45m-10.636,34.343a37.028,37.028,0,0,0,10.1,16.245,37.214,37.214,0,0,0,52.6-1.606,37.2,37.2,0,0,0-1.021-52.035c-.192-.192-.386-.378-.585-.562a37.207,37.207,0,0,0-52.6,1.6,37.191,37.191,0,0,0-8.5,36.357" transform="translate(-1032.492 1481.271)" fill="#1f4d84"/><path d="M1303.127-1126.909a33.91,33.91,0,0,1-7.035-3.5,34.62,34.62,0,0,1-4.8-3.774,34.274,34.274,0,0,1-1.475-48.45q.81-.863,1.664-1.653a34.162,34.162,0,0,1,23.3-9.136,34.474,34.474,0,0,1,5.872.505,34.062,34.062,0,0,1,10.365,3.58l-27.9,62.43" transform="translate(-1045.199 1468.479)" fill="#93b5f5"/><path d="M1491.063-1058.154l23.582-52.776c.095.142.189.286.281.431a34.212,34.212,0,0,1,5.26,15.628,34.2,34.2,0,0,1-9.2,26.3,34.126,34.126,0,0,1-17.037,9.863c-.953.227-1.919.411-2.888.555" transform="translate(-1216.933 1401.387)" fill="#ccdffc"/><path d="M1413.308-1107.08q-1.628,0-3.254-.154a34.215,34.215,0,0,1-8.391-1.879l27.9-62.43a34.009,34.009,0,0,1,3.771,2.36,34.453,34.453,0,0,1,3.473,2.868,34.167,34.167,0,0,1,5.133,6.089l-23.582,52.776a34.583,34.583,0,0,1-5.046.371" transform="translate(-1144.032 1450.683)" fill="#d5a6a1"/><path d="M1314.773-1096.8c-1.085,0-2.173-.052-3.256-.154q1.624.153,3.254.154a34.582,34.582,0,0,0,5.046-.371c.968-.144,1.934-.329,2.888-.555a34.126,34.126,0,0,0,17.037-9.863,34.2,34.2,0,0,0,9.2-26.3,34.2,34.2,0,0,1-9.2,26.3,34.167,34.167,0,0,1-17.04,9.865,34.505,34.505,0,0,1-7.931.923m-18.683-5.536a34.468,34.468,0,0,1-4.8-3.774,34.275,34.275,0,0,1-1.476-48.45q.81-.862,1.665-1.653-.855.792-1.664,1.653a34.274,34.274,0,0,0,1.475,48.45,34.619,34.619,0,0,0,4.8,3.774m47.589-47.18c-.092-.144-.187-.289-.281-.431a34.163,34.163,0,0,0-5.133-6.089,34.453,34.453,0,0,0-3.473-2.868,34.759,34.759,0,0,1,3.473,2.865,34.364,34.364,0,0,1,5.414,6.522" transform="translate(-1045.298 1440.403)" fill="#698ebf"/><path d="M990.066-958.628c-26.16-18.64-23.985-43.516-23.985-43.516,9.561,5.392,19.049,17.316,23.4,27.659.256,5.925.472,11.658.583,15.857" transform="translate(-788.413 1312.911)" fill="#ed7d2b"/><path d="M1219.387-823.521a7.136,7.136,0,0,0,3.341-2.064s.787.052-.129,1.73c-.077.142-.247.5-.375.757a.162.162,0,0,0,.137.234c1.065.082,2.135-.339,4.186.087.283.06.365.737.354,1.026a2.617,2.617,0,0,1-.551,1.787c-.33.436-1.252.906-3.306,1.73-.782.316-3.019.08-5.115-.642l-1.675-.774.52-3.114.421.09c.668.139,1.5-.677,2.193-.846" transform="translate(-992.56 1169.315)" fill="#ffb27d"/><path d="M972.016-1063.971s-23.506,4.476,6.916,38.515c4.865,5.444,31.151,12.531,31.151,12.531s2.666-2.268,1.322-4.1c0,0-18.1-13.144-22.081-15.232-1.792-.941-6.953-20.978-9.873-25.8a13.161,13.161,0,0,0-7.435-5.907" transform="translate(-786.317 1363.194)" fill="#f99746"/><path d="M1252.41-1020.928a11.978,11.978,0,0,0,.919-2.243,12.4,12.4,0,0,1,1.517-3.435c.16-.159.686.047.748.732a4,4,0,0,1-.378,1.489,16.71,16.71,0,0,0-.5,2.952c-.364,1.185-2.309.505-2.309.505" transform="translate(-1022.031 1332.847)" fill="#ffb27d"/><path d="M1300.922-1363.745a1.418,1.418,0,0,0-.253,1.516l0,.01a9.424,9.424,0,0,0,2.977,3.266c.179.144.339.276.478.4.036.032.073.065.107.1l.083.075c1.309,1.207.816,1.484,3.167,3.933,2.679,2.791,4.526,2.84,5.051,2.586.446-.217-.458-1.7-1.456-3.358l-.147-.244-.4-.667c-1.17-2-.869-2.943-.59-5.92.227-2.422,3.769-13.522,3.769-13.522l-5.138-.889s-1.548,8.842-3.255,10.2c-.912.727-1.932.734-2.809,1.272-.062.037-.123.077-.182.117a6.733,6.733,0,0,0-1.406,1.128" transform="translate(-1061.37 1617.344)" fill="#ffb27d"/><path d="M1300.922-1313.256a1.418,1.418,0,0,0-.253,1.516l0,.01a10.918,10.918,0,0,0,2.982,3.256c.177.147.334.284.473.408.036.032.073.065.107.1l.083.075c1.309,1.207.816,1.484,3.167,3.933,2.679,2.791,4.526,2.84,5.051,2.586.446-.217-.458-1.7-1.456-3.358a11.423,11.423,0,0,1-4.78-3.525c-1.555-1.986-2.611-4.516-3.669-6.071-.117-.02-.186-.035-.3-.055a6.735,6.735,0,0,0-1.406,1.128" transform="translate(-1061.365 1566.855)" fill="#233862"/><path d="M1506.568-1373.695c.316,1.586,2.579,1.322,5.1.707s1.927.117,5.521-.281,4.685-1.735,4.794-2.27c.1-.475-1.678-.642-3.582-.864-.239-.025-.48-.055-.722-.085-2.151-.271-3.727-1.66-5.678-2.8-1.852-1.08-4.613-5.481-4.613-5.481l-4.929.388s2.584,3.931,3.585,5.641a5.948,5.948,0,0,1,.483,3.358,6.39,6.39,0,0,0,.037,1.688" transform="translate(-1226.18 1624.1)" fill="#ffb27d"/><path d="M1529.227-1336.541c2.527-.617,1.927.117,5.521-.281s4.685-1.735,4.794-2.27c.1-.475-1.678-.642-3.582-.864l-.017.037a10.136,10.136,0,0,1-5.15,1.6c-2.44.06-5.021-.64-6.706-.615a6.391,6.391,0,0,0,.037,1.688c.316,1.586,2.579,1.322,5.1.707" transform="translate(-1243.774 1587.654)" fill="#233862"/><path d="M1349.585-1528.777l-4.613,12.4-6.022,16.191a9.746,9.746,0,0,1-3.2-.294,13.787,13.787,0,0,1-3.092-1.506s1.676-17.386,4.8-27.365a17.731,17.731,0,0,1,2.684-5.8c4.834-5.708,9.442,6.373,9.442,6.373" transform="translate(-1087.59 1747.65)" fill="#233862"/><path d="M1204.026-1610.693c-2.624-.846-9.469-.018-16.9,1.324a5.033,5.033,0,0,1-5.2-2.35l-18.685-1.464s-6.171,13.671-2.8,22.384a3.277,3.277,0,0,0,3.265,2.108s11.291.02,14.9.02c9.293,0,19.67-6.38,21.012-6.649,2.2-.438,3.074,3.956,5.268,8.568s20.642,20.435,20.642,20.435a16.263,16.263,0,0,0,4.008-.408,3.954,3.954,0,0,0,1.72-1.085s-20.43-40.686-27.238-42.884" transform="translate(-946.487 1809.868)" fill="#2a4e96"/><path d="M1136.8-1904.073a6.612,6.612,0,0,0-3.569-.929,10.226,10.226,0,0,1-1.723-.1c-7.131-1.051-11.429,9.308-11.682,12.439-.464,5.745-3.5,6.619-7.784,10.219-8.582,7.212-6.069,15.6-1.379,18.715,2.814,1.872,7.776,0,7.776,0,.07.05,13.571-7.54,20.227-11.2,9.976-1.414,2.141-26.753-1.865-29.14" transform="translate(-902.997 2047.35)" fill="#233862"/><path d="M1209.848-1805.477c.029.02-3.274,1.145-5.483.167-2.078-.919-3.651-4.337-3.62-4.339.945-.045,1.983-.869,2.784-6.293l.4.144,6.767,2.44s-.491,2.171-.809,4.237c-.268,1.738-.412,3.4-.042,3.644" transform="translate(-979.901 1974.772)" fill="#ffb27d"/><path d="M1224.583-1812.729s-.27,1.17-.665,3.358a7.638,7.638,0,0,1-6.1-5.8l6.766,2.44" transform="translate(-993.818 1974.143)" fill="#ed975d"/><path d="M1222.64-1861.511s-9.259-1.247-8.394-7,.252-9.791,6.2-9.238,6.764,2.92,6.943,4.911-2.318,11.5-4.748,11.327" transform="translate(-990.886 2025.081)" fill="#ffb27d"/><path d="M1215.485-1878.207s-5.929,5.108-9.961,5.516-5.558-.884-5.558-.884a15.737,15.737,0,0,0,3.808-5.155,2.834,2.834,0,0,1,2.338-1.67c2.879-.247,8.336-.359,9.373,2.193" transform="translate(-979.29 2027.294)" fill="#233862"/><path d="M1263.242-1875.4a14.627,14.627,0,0,1,2.606,3.341,11.206,11.206,0,0,1,.3,5.957s3.092-6,1.343-8.924c-1.854-3.1-4.251-.373-4.251-.373" transform="translate(-1030.878 2024.032)" fill="#233862"/><path d="M1183-1765.371c-.286,18.742-.082,14.824-2.133,16.6-.494.428-1.883.682-3.711.8-5.747.381-15.85-.57-16.234-1.633-1.324-3.674-.388-4.817-1.492-10.443-.115-.6-.258-1.247-.425-1.952-.921-3.866-1.818-5.18,1.456-11.386,2.969-5.623,6.053-10.186,6.33-10.022,7.826,4.65,8.459.744,8.459.744s7.891,8.143,7.75,17.286" transform="translate(-945.21 1948.31)" fill="#f99746"/><path d="M1344.972-1484.435l-6.022,16.191a9.746,9.746,0,0,1-3.2-.294,13.787,13.787,0,0,1-3.092-1.506s1.676-17.385,4.8-27.365l7.513,12.974" transform="translate(-1087.567 1715.71)" fill="#2a4e96"/><path d="M1249.728-1779.409s8.054,1.369,9,4.837,4.051,24.518,4.051,24.518-2.272,2.218-4.163.326-5.946-19.7-5.946-19.7l-2.94-9.985" transform="translate(-1019.888 1945.059)" fill="#f99746"/><path d="M1182.72-1680.193c-5.747.381-15.85-.57-16.234-1.633-1.324-3.674-.388-4.817-1.492-10.443l2.775-7.807s-.462,8.693,2.1,10.98,10.494,4.416,11.739,6.328a6.994,6.994,0,0,1,1.111,2.574" transform="translate(-950.76 1880.538)" fill="#ed7d2b"/><path d="M1224.674-1616.986s5.67-1.262,6.585-.757a13.312,13.312,0,0,1,3.43,2.972c.28.64-2.037-.483-2.79-.687a6.753,6.753,0,0,0-2.409.528,7.994,7.994,0,0,1-4.316.431l-.5-2.487" transform="translate(-999.429 1813.674)" fill="#ffb27d"/><path d="M1124.339-1783.409s-7.613.468-10.25,4.142c-3.712,5.173-11.079,27.223-6.862,30.166,4.749,3.313,21.618.874,21.618.874s.562-2.624-.218-3.893-13.472-3.323-14.057-3.911,7.326-11.419,7.327-13.176,2.443-14.2,2.443-14.2" transform="translate(-902.605 1948.313)" fill="#f99746"/><path d="M1261.413-1608.769a11.022,11.022,0,0,0,1.577,1.715,1.173,1.173,0,0,0,.641.137l-.8-1.441-1.418-.411" transform="translate(-1029.374 1806.279)" fill="#ffb27d"/><path d="M1259.945-1617.223l3.453,1.678a.62.62,0,0,1-.572.222,8.254,8.254,0,0,1-1.5-.413l-1.383-1.486" transform="translate(-1028.181 1813.154)" fill="#ffb27d"/><path d="M1260.746-1596.1l-36.08-.012v.8l35.759.012.321-.8" transform="translate(-999.547 1795.988)" fill="#233862"/><path d="M1269.855-1680.865l27.322.01,8.227-20.437-27.281-.01-8.268,20.438" transform="translate(-1036.427 1881.536)" fill="#233862"/><path d="M1367.714-1652.2a.946.946,0,0,0-.928-1.3,1.859,1.859,0,0,0-1.673,1.3.948.948,0,0,0,.926,1.3,1.865,1.865,0,0,0,1.675-1.3" transform="translate(-1113.956 1842.66)" fill="#fff"/><path d="M2296.19-1181.064a7.849,7.849,0,0,0-6.228.319c-10.6.436-10.99,11.3-9.746,15.342,1.748,5.678-4.436,10.154,2.42,12.452,7.956,2.666,14.632-.5,14.177.876,25.16,1.984,7.749-26.21-.622-28.988" transform="translate(-1860.281 1458.809)" fill="#163560"/><path d="M2242.621-994.13a27.885,27.885,0,0,1-2.833,4.284c-2.2,2.758-13.756-3.786-12.763-4.284s6.8-17.226,8.185-19.327,6.094-3.194,6.094-3.194l1.317,22.521" transform="translate(-1817.422 1324.709)" fill="#f99746"/><path d="M2469.337-297.756s3.189,2.913,2.566,4.979-3.5,3.448-3.888,5.974-1.947,3.906-3.346,3.906h-6.676s-1.031-1.777,1.459-2.315,3.428-3.5,3.273-6.263a48.524,48.524,0,0,1,.231-6.432l5.29-1.225,1.09,1.377" transform="translate(-2005.778 741.152)" fill="#1f447f"/><path d="M2295.937-285.133s1.148,12.33-.251,13.019l-17.918-.037s0-2.069,2.878-2.527,7.934-2.146,8.79-5.9,6.5-4.555,6.5-4.555" transform="translate(-1858.909 729.766)" fill="#1c3154"/><path d="M2307.9-1006.7a70.891,70.891,0,0,1,0,8.282c-.177,2.995-3.206,7.005-3.635,8-1.08,2.489-2.295,2.9-2.295,2.9l-9.407,2.305-3.309.809-10.433-3.114s-4.75-13.263-2.843-20.729a57.309,57.309,0,0,1,4.822-12.648s7.09-1.593,19.6-.707l7.5,14.911" transform="translate(-1857.201 1328.958)" fill="#f99746"/><path d="M2375.594-930.981c-.177,2.995-4.1,6.9-4.531,7.891-1.08,2.489-2.3,2.9-2.3,2.9l-9.407,2.305-1.7-4.869s13.746-3.61,11.536-16.333l6.4,8.11" transform="translate(-1924.104 1261.63)" fill="#ed7d2b"/><path d="M2272.739-827.1s-5.165,16.081-5.5,21.555,9.875,77.772,10.286,80.294c.388,2.38,3.341,3.893,3.341,3.893a4.463,4.463,0,0,0,3.3.254,8.168,8.168,0,0,0,3.54-1.668s4.02-51.562,1.531-69.98a292.007,292.007,0,0,1-2.517-34.348h-13.978" transform="translate(-1850.348 1170.551)" fill="#233862"/><path d="M2326.02-829.665s7.881,10.572,8.616,17.719,1.153,32.254,2.718,39.222,7.314,20.375,7.314,42.11a4.329,4.329,0,0,1-2.442,1.907,19.87,19.87,0,0,1-2.148.595,3.377,3.377,0,0,1-3.779-1.792c-3.888-7.829-16.273-33.073-16.908-38.313-.448-3.709-4.359-28.254-12.887-42.657-2.049-3.458,1.257-17.209,1.257-17.209l18.259-1.581" transform="translate(-1881.999 1172.633)" fill="#2a4e96"/><path d="M2291.023-840.4a10.835,10.835,0,0,0,6.194,1.725c4.921.1,17.117-1.255,17.117-1.255a10.144,10.144,0,0,1,.52,3.112s-14.894,3.756-23.524.548a5.453,5.453,0,0,1-.306-4.13" transform="translate(-1869.537 1181.363)" fill="#233862"/><path d="M2309.373-834.934a1.672,1.672,0,0,0-1.5,1.8,1.672,1.672,0,0,0,1.5,1.8,1.671,1.671,0,0,0,1.5-1.8A1.671,1.671,0,0,0,2309.373-834.934Zm0,4.339a2.411,2.411,0,0,1-2.245-2.542,2.411,2.411,0,0,1,2.245-2.542,2.409,2.409,0,0,1,2.245,2.542,2.409,2.409,0,0,1-2.245,2.542" transform="translate(-1882.747 1177.524)" fill="#fff"/><path d="M2231.3-896.447l-22.384.209L2197.9-922.122l22.384-.209,11.013,25.884" transform="translate(-1793.857 1247.999)" fill="#b5453c"/><path d="M2311.082-864.189l-1.64-2.016a5.74,5.74,0,0,0-1.917-1.158c-.8-.169-2.507-1.15-2.671-.874s1.307,2.248,1.307,2.248l.075.012c-1.69,1.27-5.957.149-6.482.667-.64.627.879,1.986,1.693,2.751s3.142,2.034,4.956,1.469c1.324-.413,3.413-.834,3.413-.834l1.267-2.265" transform="translate(-1876.664 1204.044)" fill="#ffb27d"/><path d="M2206.289-901.353s1.406-1.6,2.3-.831-.234,4.541-1.088,4.157-1.705-2.858-1.215-3.326" transform="translate(-1800.325 1231.783)" fill="#ffb27d"/><path d="M2359.224-1020.437s6.408.707,11.008,9.061c3.625,6.589,9.825,18.735,7.486,22.168-1.028,1.506-10.871,6.866-29.857,3.8a5.748,5.748,0,0,1,1.83-3.51s15.979-5.128,15.952-6.149c-.052-1.932-2.158-3.6-11.085-12.526-2.427-2.43,4.667-12.845,4.667-12.845" transform="translate(-1916.221 1327.789)" fill="#f99746"/><path d="M2340.164-1061.306c.221-.3-.062-1.237-.416-2.99a32.714,32.714,0,0,1-.846-6.808l-.473.08-7.941,1.337s.179,2.123.184,4.122l0,.05c.007,1.738-.47,4.364.117,4.707,3.007,1.762,8.526.64,9.372-.5" transform="translate(-1901.855 1368.996)" fill="#ffb27d"/><path d="M2330.488-1069.34s.157,2.995.162,4.994c4.446-.107,6.816-4.421,7.779-6.33l-7.941,1.337" transform="translate(-1901.839 1368.649)" fill="#e8945b"/><path d="M2304.163-1124.387s10.41-1.481,9.387-7.951-.368-11.018-7.057-10.346-7.59,3.346-7.774,5.589,2.711,12.927,5.444,12.708" transform="translate(-1875.968 1427.265)" fill="#ffb27d"/><path d="M2314.928-1147.022s4.05,7.137,8.593,7.563,6.248-1.043,6.248-1.043a12.513,12.513,0,0,1-5.205-6.656s-8.068-3.816-9.636.137" transform="translate(-1889.202 1432.198)" fill="#163560"/><path d="M2298.554-1140.713a6.516,6.516,0,0,0-2.6,2.8,10.581,10.581,0,0,0-.458,6.164s-2.965-4.817-1.023-8.118c2.061-3.5,4.085-.844,4.085-.844" transform="translate(-1871.88 1426.395)" fill="#163560"/></g></g></svg>