<svg xmlns="http://www.w3.org/2000/svg" width="24" height="16" viewBox="0 0 24 16">
    <g fill="none" fill-rule="evenodd">
        <rect width="24" height="16" fill="#0772B8" rx="3"/>
        <path fill="#FCED20" fill-rule="nonzero" d="M18 9.892L14.885 7.73 17.654 6 12.577 6 9.808 7.73 9.808 6 6 6 6 10 9.808 10 9.808 7.838 12.577 9.892z"/>
        <path fill="#F5F5F9" d="M0 5L24 5 24 5.2 0 5.2zM0 11.4L24 11.4 24 11.6 0 11.6z"/>
        <path fill="#FFF" fill-rule="nonzero" d="M7.616 13.927h-.469v-.742c0-.157-.01-.258-.03-.304-.02-.046-.052-.082-.098-.108-.045-.025-.099-.038-.162-.038-.082 0-.155.018-.22.055-.064.036-.108.084-.132.145-.024.06-.036.171-.036.334v.658H6v-1.454h.436v.214c.155-.164.35-.246.584-.246.104 0 .198.015.284.045.086.031.15.07.195.117.044.048.074.102.092.162.017.06.025.146.025.259v.903zm4.587-.463l.468.065c-.06.14-.155.247-.285.32-.13.074-.292.111-.487.111-.308 0-.536-.083-.685-.248-.116-.132-.175-.3-.175-.5 0-.242.077-.43.23-.567.154-.136.348-.204.583-.204.264 0 .472.07.625.214.152.143.225.361.219.656H11.52c.003.114.041.203.114.266.072.064.162.096.27.096.074 0 .135-.017.186-.05.05-.033.087-.086.113-.159zm.027-.388c-.004-.112-.039-.196-.105-.254-.067-.058-.148-.087-.244-.087-.103 0-.187.03-.254.092-.067.06-.1.144-.099.249h.702zm5.732-.563v.307h-.321v.586c0 .119.003.188.01.207.005.02.02.036.04.049.023.013.049.019.08.019.044 0 .107-.012.189-.037l.04.299c-.11.038-.233.057-.37.057-.085 0-.162-.012-.23-.035-.067-.023-.117-.053-.149-.09-.032-.037-.054-.087-.066-.15-.01-.045-.015-.135-.015-.271v-.634h-.215v-.307h.215v-.288l.471-.225v.513h.32z"/>
        <path fill="#FFF" d="M20.054 2l.25.375h-1.619l.212.25h1.655L21 3l-.572.5h-2.863l-.249-.25V4h-3.484V2.5h2.489v.625h-1.37V3.5h1.743v-1h.871l.573.625h1.792v-.25h-1.618L17.565 2h2.49zm-1.867 1.625V4h-.373v-.375h.373zm.872 0V4h-.374v-.375h.374zM5.618 2l-.622 1.125H9.35V2.75h.623v.375h.373V2.75h.871v1h-6.72L4 3.125 4.871 2h.747zm7.467.875v.5H11.84v-.5h1.245zm-1.991-.75v.5h-.498v-.5h.498zm-4.73 0v.5h-.497v-.5h.498zm.623 0v.5h-.498v-.5h.498z"/>
    </g>
</svg>
