<svg xmlns="http://www.w3.org/2000/svg" width="24" height="16" viewBox="0 0 24 16">
    <g fill="none">
        <path fill="#3F51B5" d="M24 13.867C24 15.045 22.977 16 21.714 16H2.286C1.023 16 0 15.045 0 13.867V2.133C0 .955 1.023 0 2.286 0h19.428C22.977 0 24 .955 24 2.133v11.734z"/>
        <ellipse cx="15.143" cy="8" fill="#FFC107" rx="5.238" ry="5.333"/>
        <path fill="#FF3D00" d="M10.96 11.2c-.243-.33-.452-.685-.616-1.067h2.789c.146-.339.26-.695.334-1.066H10.01c-.07-.345-.106-.701-.106-1.067h3.666c0-.366-.036-.722-.105-1.067H10.01c.074-.37.188-.727.334-1.066h2.789c-.164-.382-.372-.738-.616-1.067H10.96c.229-.31.487-.598.775-.85-.915-.799-2.102-1.283-3.402-1.283C5.44 2.667 3.095 5.054 3.095 8s2.345 5.333 5.238 5.333c1.713 0 3.228-.84 4.183-2.133H10.96z"/>
    </g>
</svg>
