<svg xmlns="http://www.w3.org/2000/svg" width="227.777" height="142.183"><g><g><path d="M74.846 26.142L18.063 41.63v81.11l56.783-15.488z" fill="#1d001c"/><path d="M74.845 26.142l56.776 15.488v81.11l-56.776-15.488z" fill="#230324"/><path d="M74.846 138.227l-56.783-15.48v-81.11l56.783 15.481z" fill="#4d2657"/><path d="M74.845 138.227l56.776-15.481V41.637L74.845 57.118z" fill="#37163c"/><path d="M56.776 75.92L0 60.439l18.063-18.8L74.846 57.12z" fill="#5f316c"/><path d="M89.594 78.502l56.776-15.481-14.749-21.384-56.776 15.481z" fill="#4c2556"/></g><g><path d="M91.073 57.831l-15.184-2.509a11.77 11.77 0 00-7.269 1.551L33.597 80.047a4.009 4.009 0 00-1.129 5.532l13.151 19.872c1.208 1.829 4.727 1.981 4.727 1.981l35.828-24.024a11.8 11.8 0 004.271-6.08l3.624-14.96a3.66 3.66 0 00-2.996-4.537zm-2.947 9.58a3.649 3.649 0 111.03-5.057 3.651 3.651 0 01-1.03 5.057z" fill="#8d1e53"/><path d="M93.218 58.102l-15.184-2.511a11.74 11.74 0 00-7.262 1.551L35.749 80.317a4.009 4.009 0 00-1.129 5.532l13.151 19.878a4 4 0 005.532 1.122l35.023-23.173a11.8 11.8 0 004.271-6.08l3.624-14.96a3.668 3.668 0 00-3.003-4.534zm-2.944 9.573a3.649 3.649 0 111.03-5.057 3.65 3.65 0 01-1.03 5.056z" fill="#e8308a"/><g><path d="M57.76 84.919q-2.882 1.9-4.905-1.149a8.521 8.521 0 01-.508-.878l-.8-1.518a5.993 5.993 0 01-.845-3.591 3.936 3.936 0 011.934-2.687 3.272 3.272 0 013-.64 4.092 4.092 0 011.849 1.67c.165.257.33.535.489.832l.878 1.71a5.949 5.949 0 01.819 3.572 3.88 3.88 0 01-1.911 2.679zm-.918-1.763a1.348 1.348 0 00.614-.878 2.176 2.176 0 00-.053-1.07A7.328 7.328 0 0056.875 80l-.891-1.73q-.228-.416-.456-.753a8.7855 8.7855 0 01-.224-.317 1.329 1.329 0 00-.772-.555 1.2 1.2 0 00-.964.238 1.54 1.54 0 00-.561.594 1.3 1.3 0 00-.119.753 3.344 3.344 0 00.2.805 7.793 7.793 0 00.416.9l.891 1.73q.228.416.456.753c.073.112.145.218.218.33a1.482 1.482 0 00.805.594 1.134 1.134 0 00.968-.186zm7.341 9.157l-4.767-21.522 1.888-1.248 4.78 21.509zm8.622-5.546q-2.882 1.9-4.925-1.182c-.165-.257-.337-.535-.5-.845l-.792-1.538a5.981 5.981 0 01-.838-3.591 3.94 3.94 0 011.941-2.687 3.219 3.219 0 013-.621 4.126 4.126 0 011.822 1.631 8.917 8.917 0 01.5.871l.891 1.71c1.437 2.733 1.074 4.82-1.098 6.248zm-.924-1.776a1.348 1.348 0 00.614-.878 2.173 2.173 0 00-.053-1.069 7.1 7.1 0 00-.528-1.208l-.9-1.717c-.158-.3-.317-.568-.469-.805-.066-.1-.125-.185-.191-.271a1.341 1.341 0 00-.772-.561 1.207 1.207 0 00-.957.231 1.54 1.54 0 00-.561.594 1.317 1.317 0 00-.125.759 3.674 3.674 0 00.191.805 9.087 9.087 0 00.416.9l.891 1.73c.145.251.29.482.429.693.086.132.172.257.251.383a1.459 1.459 0 00.805.594 1.088 1.088 0 00.959-.18z" fill="#fff"/></g></g><g><path d="M157.791 9.314l-7.988 7.658h-20.189v99.978h28.177z" fill="#2f0f33"/><path d="M157.791 9.314l69.99 19.086v99.978l-69.99-19.086z" fill="#45204d"/><path d="M199.6 136.043l-69.986-19.093V16.972L199.6 36.058z" fill="#633472"/><path d="M199.6 136.04l8.094-7.665h20.083V28.4l-21.958.508-6.219 7.15z" fill="#51295c"/><path d="M156.491 31.991a2.126 2.126 0 11-2.126-2.126 2.124 2.124 0 012.126 2.126z" fill="#1d001c"/><path d="M177.795 37.108a2.126 2.126 0 11-2.122-2.126 2.124 2.124 0 012.122 2.126z" fill="#1d001c"/><path d="M177.795 19.105a2.126 2.126 0 11-2.122-2.126 2.124 2.124 0 012.122 2.126z" fill="#1d001c"/><path d="M199.099 24.214a2.126 2.126 0 11-2.126-2.126 2.124 2.124 0 012.126 2.126z" fill="#1d001c"/><path d="M154.364 31.106c0-7.8 2.106-19.607 12.372-16.848 8.523 2.291 8.932 15.039 8.932 22.842" fill="none" stroke="#e8308a" stroke-linecap="round" stroke-linejoin="round" stroke-miterlimit="10" stroke-width="3.098"/><path d="M175.669 18.834c0-7.81 2.106-19.607 12.372-16.848 8.523 2.291 8.932 15.039 8.932 22.842" fill="none" stroke="#e8308a" stroke-linecap="round" stroke-linejoin="round" stroke-miterlimit="10" stroke-width="3.098"/></g><g><path d="M79.966 4.594c-9.033 0-16.36 4.558-16.36 10.181 0 3.68 3.137 6.9 7.835 8.69l.895 9.6 3.036-8.517a25.674 25.674 0 004.6.41c9.037 0 16.364-4.558 16.364-10.181S89.007 4.594 79.966 4.594z" fill="#45a787"/><path d="M74.21 14.884a1.871 1.871 0 11-1.871-1.871 1.871 1.871 0 011.871 1.871z" fill="#fff"/><path d="M81.03 14.884a1.871 1.871 0 11-1.871-1.871 1.873 1.873 0 011.871 1.871z" fill="#fff"/><path d="M87.859 14.884a1.871 1.871 0 11-1.871-1.871 1.873 1.873 0 011.871 1.871z" fill="#fff"/></g><g><g><path d="M162.874 138.07a4.114 4.114 0 01-4.113 4.113h-30.428a4.114 4.114 0 01-4.113-4.113V63.04a4.114 4.114 0 014.113-4.113h30.427a4.114 4.114 0 014.113 4.113z" fill="#4d2657"/><path d="M160.18 138.07a4.114 4.114 0 01-4.113 4.113h-30.434a4.114 4.114 0 01-4.113-4.113V63.04a4.114 4.114 0 014.113-4.113h30.428a4.114 4.114 0 014.113 4.113v75.03z" fill="#f6f6f6"/><path d="M144.89 63.04a1.142 1.142 0 01-1.142 1.142h-5.8a1.142 1.142 0 01-1.142-1.142 1.142 1.142 0 011.142-1.142h5.8a1.142 1.142 0 011.142 1.142z" fill="#b4a4cc"/><path fill="#b4a4cc" d="M122.887 65.833h36.046v66.5h-36.046z"/><path d="M124.214 131.403v-65.57h-1.327v66.507h36.046v-.937z" fill="#9084a3"/><path d="M145.313 138.91a1.5 1.5 0 01-1.505 1.505h-5.911a1.5 1.5 0 01-1.505-1.505v-3.459a1.5 1.5 0 011.505-1.505h5.915a1.5 1.5 0 011.505 1.505z" fill="#b4a4cc"/></g><g fill="#fff"><path d="M122.887 123.145v-9.672l36.046-43.123v9.665z"/><path d="M122.887 129.772v-3.453l36.046-43.13v3.45z"/></g><g><path d="M125.963 75.808a4.905 4.905 0 11-9.764 0z" fill="#321c42"/><path d="M135.728 75.808a4.908 4.908 0 11-9.771 0z" fill="#d6d6d6"/><path d="M145.491 75.808a4.905 4.905 0 11-9.764 0z" fill="#412a57"/><path d="M155.255 75.808a4.905 4.905 0 11-9.764 0z" fill="#d6d6d6"/><path d="M165.02 75.808a4.905 4.905 0 11-9.764 0z" fill="#321c42"/><g><path d="M156.649 65.833h-31.036l-9.414 9.975h48.821z" fill="#412a57"/><path d="M150.443 65.833h-18.624l-5.856 9.975h29.292z" fill="#fff"/><path d="M144.237 65.833h-6.206l-2.3 9.975h9.764z" fill="#412a57"/></g></g></g></g></svg>
