<svg xmlns="http://www.w3.org/2000/svg" width="198.086" height="136.337"><g><g><path d="M167.265 94.538a4.388 4.388 0 01-4.385 4.385l-129.185 1.724s-4.56-3.69-4.56-6.109V12.467a4.388 4.388 0 014.385-4.385h129.358c2.419 0 6.394 4.348 6.394 4.348z" fill="#2d053d"/><path d="M170.749 97.775a4.388 4.388 0 01-4.385 4.385H36.999a4.388 4.388 0 01-4.385-4.385V15.704a4.388 4.388 0 014.385-4.385h129.365a4.388 4.388 0 014.385 4.385z" fill="#45215b"/><path d="M0 125.544v6.409a4.672 4.672 0 004.911 4.385h188.265a4.672 4.672 0 004.911-4.385v-6.409z" fill="#e0e1e2"/><path fill="#a699c4" d="M36.83 19.584h129.709v76.905H36.83z"/><path d="M38.679 95.195V19.584H36.83v76.9h129.709v-1.286z" fill="#82799b"/><path d="M103.534 16.069a1.849 1.849 0 11-1.849-1.849 1.846 1.846 0 011.849 1.849z" fill="#a699c4"/><g fill="#fff"><path d="M36.83 83.503V66.718l78.936-47.134h26.972z"/><path d="M36.83 94.998v-5.992l115.08-69.422h8.36z"/></g><path d="M198.079 125.544H0l34.645-23.384h134.079z" fill="#fff"/><path d="M36.852 105.477L16.069 119.5h167.08l-17.611-14.023z" fill="#dcddde"/></g></g><g transform="translate(55.209)"><path fill="#fff" d="M0 0h123.776v85.389H0z"/><path fill="#6e4484" d="M0 0h123.776v10.245H0z"/><path d="M104.377 4.745a3.234 3.234 0 11-3.24-3.24 3.239 3.239 0 013.24 3.24z" fill="#fff"/><path d="M113.318 4.745a3.234 3.234 0 11-3.23-3.237 3.237 3.237 0 013.23 3.237z" fill="#fff"/><path d="M121.298 4.745a3.234 3.234 0 11-3.237-3.24 3.239 3.239 0 013.237 3.24z" fill="#fff"/><path d="M84.745 4.633a2.479 2.479 0 01-2.477 2.473H5.29a2.475 2.475 0 01-2.477-2.473A2.479 2.479 0 015.29 2.156h76.978a2.479 2.479 0 012.477 2.477z" fill="#fff"/><path d="M9.924 24.152h42.91v42.91H9.924z" fill="#45a787"/><rect width="52.183" height="5.715" rx="2.857" transform="translate(64.051 24.152)" fill="#d1d3d4" opacity=".332"/><rect width="52.183" height="4.1" rx="2.05" transform="translate(64.051 31.481)" fill="#d1d3d4" opacity=".332"/><rect width="33.856" height="4.1" rx="2.05" transform="translate(64.051 37.305)" fill="#d1d3d4" opacity=".332"/><rect width="46.038" height="4.1" rx="2.05" transform="translate(64.051 52.183)" fill="#d1d3d4" opacity=".332"/><rect width="33.856" height="4.1" rx="2.05" transform="translate(64.051 58.007)" fill="#d1d3d4" opacity=".332"/></g><path d="M75.831 48.64a11.474 11.474 0 001.016 2.411l-1.228 1.542a1.263 1.263 0 00.1 1.681l2.107 2.109a1.263 1.263 0 001.681.095l1.535-1.213a11.131 11.131 0 002.507 1.06l.227 1.973a1.259 1.259 0 001.257 1.118h2.989a1.27 1.27 0 001.257-1.118l.219-1.907a11.27 11.27 0 002.682-1.082l1.483 1.177a1.263 1.263 0 001.681-.095l2.11-2.108a1.263 1.263 0 00.1-1.681l-1.155-1.462a10.968 10.968 0 001.1-2.638l1.783-.2a1.259 1.259 0 001.118-1.257V44.05a1.27 1.27 0 00-1.118-1.257l-1.754-.2a11.11 11.11 0 00-1.06-2.609l1.082-1.367a1.263 1.263 0 00-.1-1.681l-2.1-2.1a1.263 1.263 0 00-1.681-.095l-1.323 1.042a11.049 11.049 0 00-2.748-1.147l-.2-1.717a1.259 1.259 0 00-1.257-1.118h-2.989a1.27 1.27 0 00-1.257 1.118l-.2 1.717a10.971 10.971 0 00-2.813 1.191l-1.374-1.089a1.263 1.263 0 00-1.681.095l-2.112 2.112a1.263 1.263 0 00-.095 1.681l1.147 1.454a10.774 10.774 0 00-1.038 2.638l-1.842.212a1.259 1.259 0 00-1.118 1.257v2.996a1.27 1.27 0 001.118 1.257zm10.815-8.075a4.933 4.933 0 11-4.933 4.933 4.94 4.94 0 014.933-4.933zm0 0" fill="#fff"/></svg>
