<svg xmlns="http://www.w3.org/2000/svg" width="24" height="16" viewBox="0 0 24 16">
    <g fill="none">
        <path fill="#1565C0" d="M24 13.867C24 15.045 22.977 16 21.714 16H2.286C1.023 16 0 15.045 0 13.867V2.133C0 .955 1.023 0 2.286 0h19.428C22.977 0 24 .955 24 2.133v11.734z"/>
        <g fill="#FFF">
            <path d="M3.833.519l-1.401 4.06s-.356-1.717-.39-1.933C1.243.877.066.976.066.976l1.387 5.246H3.14L5.47.518H3.834zM5.167 6.222L6.699 6.222 7.625.519 6.074.519zM16.004.519h-1.61L11.88 6.222h1.521l.314-.814h1.918l.163.814h1.393L16.004.52zm-1.864 3.8l.834-2.156.436 2.155h-1.27zM9.797 2.18c0-.313.265-.547 1.027-.547.495 0 1.062.35 1.062.35l.248-1.198S11.41.518 10.7.518c-1.61 0-2.44.749-2.44 1.697 0 1.714 2.122 1.479 2.122 2.36 0 .15-.123.5-1.007.5-.887 0-1.472-.317-1.472-.317l-.264 1.15s.567.314 1.663.314c1.098 0 2.621-.799 2.621-1.946 0-1.38-2.125-1.48-2.125-2.095z" transform="translate(3.64 4.444)"/>
        </g>
        <path fill="#FFC107" d="M5.4 8l-.487-2.192s-.22-.475-.794-.475H1.88S4.735 6.105 5.4 8z"/>
    </g>
</svg>
